<svg width="104" height="104" viewBox="0 0 104 104" fill="none" xmlns="http://www.w3.org/2000/svg">
<circle cx="52" cy="52" r="52" fill="url(#paint0_radial_645_7069)"/>
<g filter="url(#filter0_d_645_7069)">
<path d="M57.168 78.002L71.168 62.002" stroke="white" stroke-linecap="round"/>
</g>
<g filter="url(#filter1_d_645_7069)">
<path d="M35.168 34.002L45.168 48.002" stroke="white" stroke-linecap="round"/>
</g>
<g filter="url(#filter2_d_645_7069)">
<path d="M35.168 34.002L65.168 24.002" stroke="white" stroke-linecap="round"/>
</g>
<g filter="url(#filter3_d_645_7069)">
<path d="M45.168 48.002L71.168 61.002" stroke="white" stroke-linecap="round"/>
</g>
<g filter="url(#filter4_d_645_7069)">
<path d="M57.168 78.002L34.168 69.002" stroke="white" stroke-linecap="round"/>
</g>
<g filter="url(#filter5_d_645_7069)">
<path d="M34.668 34.502L35.7674 40.2579L36.168 34.2578L41.666 35.1456L36.168 33.002L38.9551 28.1644L35.168 32.502L31.3964 28.9379L34.168 33.002L29.4208 36.4216L34.668 34.502Z" fill="white"/>
<path d="M34.9153 34.4544L34.8605 34.1673L34.5819 34.2692L31.0307 35.5684L34.3155 33.2022L34.5122 33.0605L34.3771 32.8624L32.914 30.7169L34.9933 32.6818L35.1843 32.8624L35.3582 32.6633L37.4641 30.2513L35.9494 32.8803L35.8064 33.1286L36.0741 33.233L39.3916 34.5264L36.2102 34.0127L35.9352 33.9683L35.9168 34.2432L35.647 38.2852L34.9153 34.4544Z" stroke="white" stroke-width="0.5"/>
</g>
<g filter="url(#filter6_d_645_7069)">
<path d="M65.5783 25.4396L68.7503 30.3669L66.8782 24.6522L72.3094 23.4197L66.4086 23.4875L67.1846 17.9587L65.2941 23.3977L60.4635 21.5024L64.5536 24.2353L61.4296 29.182L65.5783 25.4396Z" fill="white"/>
<path d="M65.7899 25.3029L65.6316 25.0572L65.4114 25.2559L62.6036 27.7887L64.7653 24.3659L64.8948 24.1609L64.6954 24.0277L62.5362 22.585L65.1994 23.6299L65.4441 23.7259L65.5309 23.4762L66.5821 20.4517L66.1604 23.4564L66.1205 23.7401L66.4079 23.7368L69.9684 23.696L66.8257 24.4091L66.554 24.4708L66.6398 24.7326L67.9009 28.5822L65.7899 25.3029Z" stroke="white" stroke-width="0.5"/>
</g>
<g filter="url(#filter7_d_645_7069)">
<path d="M71.375 61.4414L72.4745 67.1974L72.875 61.1973L78.3731 62.085L72.875 59.9414L75.6621 55.1038L71.875 59.4414L68.1035 55.8773L70.875 59.9414L66.1279 63.361L71.375 61.4414Z" fill="white"/>
<path d="M71.6223 61.3938L71.5675 61.1067L71.2889 61.2086L67.7377 62.5078L71.0225 60.1416L71.2192 59.9999L71.0841 59.8018L69.621 57.6564L71.7003 59.6213L71.8914 59.8019L72.0652 59.6028L74.1712 57.1907L72.6564 59.8198L72.5134 60.068L72.7811 60.1724L76.0987 61.4659L72.9173 60.9522L72.6422 60.9078L72.6239 61.1826L72.3541 65.2246L71.6223 61.3938Z" stroke="white" stroke-width="0.5"/>
</g>
<g filter="url(#filter8_d_645_7069)">
<path d="M33.7489 69.6917L36.3529 74.9415L35.1284 69.054L40.663 68.4336L34.7913 67.8442L36.1779 62.4361L33.6938 67.6309L29.1041 65.2098L32.8647 68.381L29.2095 72.9492L33.7489 69.6917Z" fill="white"/>
<path d="M33.9744 69.5795L33.8445 69.3177L33.6035 69.4906L30.5313 71.6952L33.0605 68.5343L33.212 68.345L33.0286 68.1904L31.0434 66.5163L33.5738 67.8511L33.8063 67.9738L33.9203 67.7353L35.3017 64.8466L34.5481 67.7857L34.477 68.0632L34.7629 68.0919L38.3058 68.4476L35.1033 68.8066L34.8264 68.8376L34.8825 69.1073L35.7074 73.0734L33.9744 69.5795Z" stroke="white" stroke-width="0.5"/>
</g>
<g filter="url(#filter9_d_645_7069)">
<path d="M56.3711 78.4414L57.4706 84.1974L57.8711 78.1973L63.3692 79.085L57.8711 76.9414L60.6582 72.1038L56.8711 76.4414L53.0996 72.8773L55.8711 76.9414L51.124 80.361L56.3711 78.4414Z" fill="white"/>
<path d="M56.6184 78.3938L56.5636 78.1067L56.285 78.2086L52.7338 79.5078L56.0186 77.1416L56.2153 76.9999L56.0802 76.8018L54.6171 74.6564L56.6964 76.6213L56.8874 76.8019L57.0613 76.6028L59.1672 74.1907L57.6525 76.8198L57.5095 77.068L57.7772 77.1724L61.0947 78.4659L57.9134 77.9522L57.6383 77.9078L57.62 78.1826L57.3502 82.2246L56.6184 78.3938Z" stroke="white" stroke-width="0.5"/>
</g>
<g filter="url(#filter10_d_645_7069)">
<path d="M44.9579 49.779L48.2534 54.6247L46.2376 48.9592L51.6359 47.5899L45.7387 47.8066L46.3749 42.26L44.6224 47.745L39.7454 45.9723L43.9033 48.6011L40.9051 53.625L44.9579 49.779Z" fill="white"/>
<path d="M45.166 49.6371L45.0017 49.3955L44.7865 49.5996L42.0436 52.2025L44.1181 48.7262L44.2424 48.5181L44.0397 48.3899L41.8448 47.0022L44.5335 47.9795L44.7806 48.0693L44.861 47.8175L45.8356 44.7674L45.4898 47.7818L45.4571 48.0665L45.7443 48.0559L49.3027 47.9252L46.179 48.7175L45.9089 48.786L46.0013 49.0455L47.3592 52.8621L45.166 49.6371Z" stroke="white" stroke-width="0.5"/>
</g>
<defs>
<filter id="filter0_d_645_7069" x="52.668" y="57.502" width="23" height="25" filterUnits="userSpaceOnUse" color-interpolation-filters="sRGB">
<feFlood flood-opacity="0" result="BackgroundImageFix"/>
<feColorMatrix in="SourceAlpha" type="matrix" values="0 0 0 0 0 0 0 0 0 0 0 0 0 0 0 0 0 0 127 0" result="hardAlpha"/>
<feOffset/>
<feGaussianBlur stdDeviation="2"/>
<feComposite in2="hardAlpha" operator="out"/>
<feColorMatrix type="matrix" values="0 0 0 0 1 0 0 0 0 1 0 0 0 0 1 0 0 0 1 0"/>
<feBlend mode="normal" in2="BackgroundImageFix" result="effect1_dropShadow_645_7069"/>
<feBlend mode="normal" in="SourceGraphic" in2="effect1_dropShadow_645_7069" result="shape"/>
</filter>
<filter id="filter1_d_645_7069" x="30.668" y="29.502" width="19" height="23" filterUnits="userSpaceOnUse" color-interpolation-filters="sRGB">
<feFlood flood-opacity="0" result="BackgroundImageFix"/>
<feColorMatrix in="SourceAlpha" type="matrix" values="0 0 0 0 0 0 0 0 0 0 0 0 0 0 0 0 0 0 127 0" result="hardAlpha"/>
<feOffset/>
<feGaussianBlur stdDeviation="2"/>
<feComposite in2="hardAlpha" operator="out"/>
<feColorMatrix type="matrix" values="0 0 0 0 1 0 0 0 0 1 0 0 0 0 1 0 0 0 1 0"/>
<feBlend mode="normal" in2="BackgroundImageFix" result="effect1_dropShadow_645_7069"/>
<feBlend mode="normal" in="SourceGraphic" in2="effect1_dropShadow_645_7069" result="shape"/>
</filter>
<filter id="filter2_d_645_7069" x="30.668" y="19.502" width="39" height="19" filterUnits="userSpaceOnUse" color-interpolation-filters="sRGB">
<feFlood flood-opacity="0" result="BackgroundImageFix"/>
<feColorMatrix in="SourceAlpha" type="matrix" values="0 0 0 0 0 0 0 0 0 0 0 0 0 0 0 0 0 0 127 0" result="hardAlpha"/>
<feOffset/>
<feGaussianBlur stdDeviation="2"/>
<feComposite in2="hardAlpha" operator="out"/>
<feColorMatrix type="matrix" values="0 0 0 0 1 0 0 0 0 1 0 0 0 0 1 0 0 0 1 0"/>
<feBlend mode="normal" in2="BackgroundImageFix" result="effect1_dropShadow_645_7069"/>
<feBlend mode="normal" in="SourceGraphic" in2="effect1_dropShadow_645_7069" result="shape"/>
</filter>
<filter id="filter3_d_645_7069" x="40.668" y="43.502" width="35" height="22" filterUnits="userSpaceOnUse" color-interpolation-filters="sRGB">
<feFlood flood-opacity="0" result="BackgroundImageFix"/>
<feColorMatrix in="SourceAlpha" type="matrix" values="0 0 0 0 0 0 0 0 0 0 0 0 0 0 0 0 0 0 127 0" result="hardAlpha"/>
<feOffset/>
<feGaussianBlur stdDeviation="2"/>
<feComposite in2="hardAlpha" operator="out"/>
<feColorMatrix type="matrix" values="0 0 0 0 1 0 0 0 0 1 0 0 0 0 1 0 0 0 1 0"/>
<feBlend mode="normal" in2="BackgroundImageFix" result="effect1_dropShadow_645_7069"/>
<feBlend mode="normal" in="SourceGraphic" in2="effect1_dropShadow_645_7069" result="shape"/>
</filter>
<filter id="filter4_d_645_7069" x="29.668" y="64.502" width="32" height="18" filterUnits="userSpaceOnUse" color-interpolation-filters="sRGB">
<feFlood flood-opacity="0" result="BackgroundImageFix"/>
<feColorMatrix in="SourceAlpha" type="matrix" values="0 0 0 0 0 0 0 0 0 0 0 0 0 0 0 0 0 0 127 0" result="hardAlpha"/>
<feOffset/>
<feGaussianBlur stdDeviation="2"/>
<feComposite in2="hardAlpha" operator="out"/>
<feColorMatrix type="matrix" values="0 0 0 0 1 0 0 0 0 1 0 0 0 0 1 0 0 0 1 0"/>
<feBlend mode="normal" in2="BackgroundImageFix" result="effect1_dropShadow_645_7069"/>
<feBlend mode="normal" in="SourceGraphic" in2="effect1_dropShadow_645_7069" result="shape"/>
</filter>
<filter id="filter5_d_645_7069" x="25.4219" y="24.1641" width="20.2461" height="20.0938" filterUnits="userSpaceOnUse" color-interpolation-filters="sRGB">
<feFlood flood-opacity="0" result="BackgroundImageFix"/>
<feColorMatrix in="SourceAlpha" type="matrix" values="0 0 0 0 0 0 0 0 0 0 0 0 0 0 0 0 0 0 127 0" result="hardAlpha"/>
<feOffset/>
<feGaussianBlur stdDeviation="2"/>
<feComposite in2="hardAlpha" operator="out"/>
<feColorMatrix type="matrix" values="0 0 0 0 1 0 0 0 0 1 0 0 0 0 1 0 0 0 1 0"/>
<feBlend mode="normal" in2="BackgroundImageFix" result="effect1_dropShadow_645_7069"/>
<feBlend mode="normal" in="SourceGraphic" in2="effect1_dropShadow_645_7069" result="shape"/>
</filter>
<filter id="filter6_d_645_7069" x="56.4648" y="13.959" width="19.8438" height="20.4082" filterUnits="userSpaceOnUse" color-interpolation-filters="sRGB">
<feFlood flood-opacity="0" result="BackgroundImageFix"/>
<feColorMatrix in="SourceAlpha" type="matrix" values="0 0 0 0 0 0 0 0 0 0 0 0 0 0 0 0 0 0 127 0" result="hardAlpha"/>
<feOffset/>
<feGaussianBlur stdDeviation="2"/>
<feComposite in2="hardAlpha" operator="out"/>
<feColorMatrix type="matrix" values="0 0 0 0 1 0 0 0 0 1 0 0 0 0 1 0 0 0 1 0"/>
<feBlend mode="normal" in2="BackgroundImageFix" result="effect1_dropShadow_645_7069"/>
<feBlend mode="normal" in="SourceGraphic" in2="effect1_dropShadow_645_7069" result="shape"/>
</filter>
<filter id="filter7_d_645_7069" x="62.1289" y="51.1035" width="20.2461" height="20.0938" filterUnits="userSpaceOnUse" color-interpolation-filters="sRGB">
<feFlood flood-opacity="0" result="BackgroundImageFix"/>
<feColorMatrix in="SourceAlpha" type="matrix" values="0 0 0 0 0 0 0 0 0 0 0 0 0 0 0 0 0 0 127 0" result="hardAlpha"/>
<feOffset/>
<feGaussianBlur stdDeviation="2"/>
<feComposite in2="hardAlpha" operator="out"/>
<feColorMatrix type="matrix" values="0 0 0 0 1 0 0 0 0 1 0 0 0 0 1 0 0 0 1 0"/>
<feBlend mode="normal" in2="BackgroundImageFix" result="effect1_dropShadow_645_7069"/>
<feBlend mode="normal" in="SourceGraphic" in2="effect1_dropShadow_645_7069" result="shape"/>
</filter>
<filter id="filter8_d_645_7069" x="25.1055" y="58.4355" width="19.5586" height="20.5059" filterUnits="userSpaceOnUse" color-interpolation-filters="sRGB">
<feFlood flood-opacity="0" result="BackgroundImageFix"/>
<feColorMatrix in="SourceAlpha" type="matrix" values="0 0 0 0 0 0 0 0 0 0 0 0 0 0 0 0 0 0 127 0" result="hardAlpha"/>
<feOffset/>
<feGaussianBlur stdDeviation="2"/>
<feComposite in2="hardAlpha" operator="out"/>
<feColorMatrix type="matrix" values="0 0 0 0 1 0 0 0 0 1 0 0 0 0 1 0 0 0 1 0"/>
<feBlend mode="normal" in2="BackgroundImageFix" result="effect1_dropShadow_645_7069"/>
<feBlend mode="normal" in="SourceGraphic" in2="effect1_dropShadow_645_7069" result="shape"/>
</filter>
<filter id="filter9_d_645_7069" x="47.125" y="68.1035" width="20.2461" height="20.0938" filterUnits="userSpaceOnUse" color-interpolation-filters="sRGB">
<feFlood flood-opacity="0" result="BackgroundImageFix"/>
<feColorMatrix in="SourceAlpha" type="matrix" values="0 0 0 0 0 0 0 0 0 0 0 0 0 0 0 0 0 0 127 0" result="hardAlpha"/>
<feOffset/>
<feGaussianBlur stdDeviation="2"/>
<feComposite in2="hardAlpha" operator="out"/>
<feColorMatrix type="matrix" values="0 0 0 0 1 0 0 0 0 1 0 0 0 0 1 0 0 0 1 0"/>
<feBlend mode="normal" in2="BackgroundImageFix" result="effect1_dropShadow_645_7069"/>
<feBlend mode="normal" in="SourceGraphic" in2="effect1_dropShadow_645_7069" result="shape"/>
</filter>
<filter id="filter10_d_645_7069" x="35.7461" y="38.2598" width="19.8906" height="20.3652" filterUnits="userSpaceOnUse" color-interpolation-filters="sRGB">
<feFlood flood-opacity="0" result="BackgroundImageFix"/>
<feColorMatrix in="SourceAlpha" type="matrix" values="0 0 0 0 0 0 0 0 0 0 0 0 0 0 0 0 0 0 127 0" result="hardAlpha"/>
<feOffset/>
<feGaussianBlur stdDeviation="2"/>
<feComposite in2="hardAlpha" operator="out"/>
<feColorMatrix type="matrix" values="0 0 0 0 1 0 0 0 0 1 0 0 0 0 1 0 0 0 1 0"/>
<feBlend mode="normal" in2="BackgroundImageFix" result="effect1_dropShadow_645_7069"/>
<feBlend mode="normal" in="SourceGraphic" in2="effect1_dropShadow_645_7069" result="shape"/>
</filter>
<radialGradient id="paint0_radial_645_7069" cx="0" cy="0" r="1" gradientUnits="userSpaceOnUse" gradientTransform="translate(52 52) rotate(90) scale(52)">
<stop stop-color="#0C1181"/>
<stop offset="1"/>
</radialGradient>
</defs>
</svg>
